<?xml version="1.0" encoding="UTF-8"?>
<svg width="1400" height="1000" xmlns="http://www.w3.org/2000/svg">
  <defs>
    <style>
      .start { fill: #4caf50; stroke: #2e7d32; stroke-width: 2; }
      .end { fill: #f44336; stroke: #c62828; stroke-width: 2; }
      .process { fill: #2196f3; stroke: #1976d2; stroke-width: 2; }
      .decision { fill: #ff9800; stroke: #f57c00; stroke-width: 2; }
      .parallel { fill: #9c27b0; stroke: #7b1fa2; stroke-width: 2; }
      .error { fill: #ff5722; stroke: #d84315; stroke-width: 2; }
      .success { fill: #4caf50; stroke: #2e7d32; stroke-width: 2; }
      .text { font-family: Arial, sans-serif; font-size: 11px; text-anchor: middle; fill: white; font-weight: bold; }
      .small-text { font-family: Arial, sans-serif; font-size: 9px; text-anchor: middle; fill: white; }
      .arrow { stroke: #333; stroke-width: 2; marker-end: url(#arrowhead); }
      .dashed-arrow { stroke: #666; stroke-width: 2; stroke-dasharray: 5,5; marker-end: url(#arrowhead); }
      .title { font-family: Arial, sans-serif; font-size: 16px; font-weight: bold; text-anchor: middle; fill: #333; }
    </style>
    <marker id="arrowhead" markerWidth="10" markerHeight="7" refX="9" refY="3.5" orient="auto">
      <polygon points="0 0, 10 3.5, 0 7" fill="#333" />
    </marker>
  </defs>

  <!-- 背景 -->
  <rect width="1400" height="1000" fill="#ffffff"/>

  <!-- タイトル -->
  <text x="700" y="30" class="title">統合台帳検索システム - アクティビティ図</text>

  <!-- システム初期化フロー -->
  <g transform="translate(50,60)">
    <text x="0" y="0" class="title" fill="#1976d2">1. システム初期化</text>
    
    <!-- 開始 -->
    <rect x="0" y="20" width="120" height="40" class="start" rx="20"/>
    <text x="60" y="45" class="text">開始</text>
    
    <!-- システム初期化 -->
    <rect x="0" y="80" width="120" height="40" class="process" rx="8"/>
    <text x="60" y="105" class="text">システム初期化</text>
    
    <!-- フィールド情報取得 -->
    <rect x="0" y="140" width="120" height="40" class="process" rx="8"/>
    <text x="60" y="165" class="text">フィールド情報取得</text>
    
    <!-- 成功判定 -->
    <polygon points="60,200 80,220 60,240 40,220" class="decision"/>
    <text x="60" y="235" class="small-text">成功?</text>
    
    <!-- 成功時 -->
    <rect x="0" y="260" width="120" height="40" class="success" rx="8"/>
    <text x="60" y="285" class="text">初期化完了</text>
    
    <!-- 失敗時 -->
    <rect x="0" y="320" width="120" height="40" class="error" rx="8"/>
    <text x="60" y="345" class="text">静的設定</text>
    
    <!-- 矢印 -->
    <line x1="60" y1="60" x2="60" y2="80" class="arrow"/>
    <line x1="60" y1="120" x2="60" y2="140" class="arrow"/>
    <line x1="60" y1="180" x2="60" y2="200" class="arrow"/>
    <line x1="60" y1="240" x2="60" y2="260" class="arrow"/>
    <line x1="60" y1="240" x2="60" y2="320" class="dashed-arrow"/>
  </g>

  <!-- 検索処理フロー -->
  <g transform="translate(250,60)">
    <text x="0" y="0" class="title" fill="#f57c00">2. 検索処理</text>
    
    <!-- 検索開始 -->
    <rect x="0" y="20" width="120" height="40" class="start" rx="20"/>
    <text x="60" y="45" class="text">検索開始</text>
    
    <!-- 権限チェック -->
    <polygon points="60,80 80,100 60,120 40,100" class="decision"/>
    <text x="60" y="115" class="small-text">権限あり?</text>
    
    <!-- 権限なし -->
    <rect x="0" y="140" width="120" height="40" class="error" rx="8"/>
    <text x="60" y="165" class="text">権限エラー</text>
    
    <!-- 検索条件取得 -->
    <rect x="0" y="200" width="120" height="40" class="process" rx="8"/>
    <text x="60" y="225" class="text">検索条件取得</text>
    
    <!-- 条件判定 -->
    <polygon points="60,260 80,280 60,300 40,280" class="decision"/>
    <text x="60" y="295" class="small-text">条件あり?</text>
    
    <!-- 条件なし -->
    <rect x="0" y="320" width="120" height="40" class="error" rx="8"/>
    <text x="60" y="345" class="text">条件なし</text>
    
    <!-- クエリ構築 -->
    <rect x="0" y="380" width="120" height="40" class="process" rx="8"/>
    <text x="60" y="405" class="text">クエリ構築</text>
    
    <!-- メイン検索 -->
    <rect x="0" y="440" width="120" height="40" class="process" rx="8"/>
    <text x="60" y="465" class="text">メイン検索</text>
    
    <!-- 結果判定 -->
    <polygon points="60,500 80,520 60,540 40,520" class="decision"/>
    <text x="60" y="535" class="small-text">結果あり?</text>
    
    <!-- 統合検索 -->
    <rect x="0" y="560" width="120" height="40" class="process" rx="8"/>
    <text x="60" y="585" class="text">統合検索</text>
    
    <!-- テーブル表示 -->
    <rect x="0" y="620" width="120" height="40" class="success" rx="8"/>
    <text x="60" y="645" class="text">テーブル表示</text>
    
    <!-- 矢印 -->
    <line x1="60" y1="60" x2="60" y2="80" class="arrow"/>
    <line x1="60" y1="120" x2="60" y2="140" class="arrow"/>
    <line x1="60" y1="120" x2="60" y2="200" class="dashed-arrow"/>
    <line x1="60" y1="180" x2="60" y2="200" class="arrow"/>
    <line x1="60" y1="240" x2="60" y2="260" class="arrow"/>
    <line x1="60" y1="300" x2="60" y2="320" class="dashed-arrow"/>
    <line x1="60" y1="300" x2="60" y2="380" class="arrow"/>
    <line x1="60" y1="420" x2="60" y2="440" class="arrow"/>
    <line x1="60" y1="480" x2="60" y2="500" class="arrow"/>
    <line x1="60" y1="540" x2="60" y2="560" class="arrow"/>
    <line x1="60" y1="600" x2="60" y2="620" class="arrow"/>
  </g>

  <!-- 統合検索フロー -->
  <g transform="translate(450,60)">
    <text x="0" y="0" class="title" fill="#c2185b">3. 統合検索</text>
    
    <!-- 統合キー抽出 -->
    <rect x="0" y="20" width="120" height="40" class="process" rx="8"/>
    <text x="60" y="45" class="text">統合キー抽出</text>
    
    <!-- 並列処理開始 -->
    <rect x="0" y="80" width="120" height="40" class="parallel" rx="8"/>
    <text x="60" y="105" class="text">並列検索開始</text>
    
    <!-- PC台帳検索 -->
    <rect x="0" y="140" width="120" height="40" class="process" rx="8"/>
    <text x="60" y="165" class="text">PC台帳検索</text>
    
    <!-- 内線台帳検索 -->
    <rect x="0" y="200" width="120" height="40" class="process" rx="8"/>
    <text x="60" y="225" class="text">内線台帳検索</text>
    
    <!-- 座席台帳検索 -->
    <rect x="0" y="260" width="120" height="40" class="process" rx="8"/>
    <text x="60" y="285" class="text">座席台帳検索</text>
    
    <!-- ユーザー台帳検索 -->
    <rect x="0" y="320" width="120" height="40" class="process" rx="8"/>
    <text x="60" y="345" class="text">ユーザー台帳検索</text>
    
    <!-- 並列処理終了 -->
    <rect x="0" y="380" width="120" height="40" class="parallel" rx="8"/>
    <text x="60" y="405" class="text">並列検索終了</text>
    
    <!-- データ統合 -->
    <rect x="0" y="440" width="120" height="40" class="process" rx="8"/>
    <text x="60" y="465" class="text">データ統合</text>
    
    <!-- 矢印 -->
    <line x1="60" y1="60" x2="60" y2="80" class="arrow"/>
    <line x1="60" y1="120" x2="60" y2="140" class="arrow"/>
    <line x1="60" y1="180" x2="60" y2="200" class="arrow"/>
    <line x1="60" y1="240" x2="60" y2="260" class="arrow"/>
    <line x1="60" y1="300" x2="60" y2="320" class="arrow"/>
    <line x1="60" y1="360" x2="60" y2="380" class="arrow"/>
    <line x1="60" y1="420" x2="60" y2="440" class="arrow"/>
  </g>

  <!-- セル交換フロー -->
  <g transform="translate(650,60)">
    <text x="0" y="0" class="title" fill="#00695c">4. セル交換</text>
    
    <!-- ドラッグ開始 -->
    <rect x="0" y="20" width="120" height="40" class="start" rx="20"/>
    <text x="60" y="45" class="text">ドラッグ開始</text>
    
    <!-- ドロップ判定 -->
    <polygon points="60,80 80,100 60,120 40,100" class="decision"/>
    <text x="60" y="115" class="small-text">有効なドロップ?</text>
    
    <!-- 無効ドロップ -->
    <rect x="0" y="140" width="120" height="40" class="error" rx="8"/>
    <text x="60" y="165" class="text">無効ドロップ</text>
    
    <!-- 主キー判定 -->
    <polygon points="60,200 80,220 60,240 40,220" class="decision"/>
    <text x="60" y="235" class="small-text">同じ主キー?</text>
    
    <!-- 異なる主キー -->
    <rect x="0" y="260" width="120" height="40" class="error" rx="8"/>
    <text x="60" y="285" class="text">交換不可</text>
    
    <!-- セル交換実行 -->
    <rect x="0" y="320" width="120" height="40" class="process" rx="8"/>
    <text x="60" y="345" class="text">セル交換実行</text>
    
    <!-- 変更状態更新 -->
    <rect x="0" y="380" width="120" height="40" class="process" rx="8"/>
    <text x="60" y="405" class="text">変更状態更新</text>
    
    <!-- テーブル再描画 -->
    <rect x="0" y="440" width="120" height="40" class="success" rx="8"/>
    <text x="60" y="465" class="text">テーブル再描画</text>
    
    <!-- 矢印 -->
    <line x1="60" y1="60" x2="60" y2="80" class="arrow"/>
    <line x1="60" y1="120" x2="60" y2="140" class="arrow"/>
    <line x1="60" y1="120" x2="60" y2="200" class="dashed-arrow"/>
    <line x1="60" y1="180" x2="60" y2="200" class="arrow"/>
    <line x1="60" y1="240" x2="60" y2="260" class="dashed-arrow"/>
    <line x1="60" y1="240" x2="60" y2="320" class="arrow"/>
    <line x1="60" y1="360" x2="60" y2="380" class="arrow"/>
    <line x1="60" y1="420" x2="60" y2="440" class="arrow"/>
  </g>

  <!-- 保存処理フロー -->
  <g transform="translate(850,60)">
    <text x="0" y="0" class="title" fill="#388e3c">5. 保存処理</text>
    
    <!-- 保存開始 -->
    <rect x="0" y="20" width="120" height="40" class="start" rx="20"/>
    <text x="60" y="45" class="text">保存開始</text>
    
    <!-- 変更判定 -->
    <polygon points="60,80 80,100 60,120 40,100" class="decision"/>
    <text x="60" y="115" class="small-text">変更あり?</text>
    
    <!-- 変更なし -->
    <rect x="0" y="140" width="120" height="40" class="error" rx="8"/>
    <text x="60" y="165" class="text">変更なし</text>
    
    <!-- バッチID生成 -->
    <rect x="0" y="200" width="120" height="40" class="process" rx="8"/>
    <text x="60" y="225" class="text">バッチID生成</text>
    
    <!-- 台帳別グループ化 -->
    <rect x="0" y="260" width="120" height="40" class="process" rx="8"/>
    <text x="60" y="285" class="text">台帳別グループ化</text>
    
    <!-- 並列更新開始 -->
    <rect x="0" y="320" width="120" height="40" class="parallel" rx="8"/>
    <text x="60" y="345" class="text">並列更新開始</text>
    
    <!-- PC台帳更新 -->
    <rect x="0" y="380" width="120" height="40" class="process" rx="8"/>
    <text x="60" y="405" class="text">PC台帳更新</text>
    
    <!-- 内線台帳更新 -->
    <rect x="0" y="440" width="120" height="40" class="process" rx="8"/>
    <text x="60" y="465" class="text">内線台帳更新</text>
    
    <!-- 座席台帳更新 -->
    <rect x="0" y="500" width="120" height="40" class="process" rx="8"/>
    <text x="60" y="525" class="text">座席台帳更新</text>
    
    <!-- 並列更新終了 -->
    <rect x="0" y="560" width="120" height="40" class="parallel" rx="8"/>
    <text x="60" y="585" class="text">並列更新終了</text>
    
    <!-- 履歴保存 -->
    <rect x="0" y="620" width="120" height="40" class="process" rx="8"/>
    <text x="60" y="645" class="text">履歴保存</text>
    
    <!-- 変更フラグリセット -->
    <rect x="0" y="680" width="120" height="40" class="success" rx="8"/>
    <text x="60" y="705" class="text">フラグリセット</text>
    
    <!-- 矢印 -->
    <line x1="60" y1="60" x2="60" y2="80" class="arrow"/>
    <line x1="60" y1="120" x2="60" y2="140" class="arrow"/>
    <line x1="60" y1="120" x2="60" y2="200" class="dashed-arrow"/>
    <line x1="60" y1="180" x2="60" y2="200" class="arrow"/>
    <line x1="60" y1="240" x2="60" y2="260" class="arrow"/>
    <line x1="60" y1="300" x2="60" y2="320" class="arrow"/>
    <line x1="60" y1="360" x2="60" y2="380" class="arrow"/>
    <line x1="60" y1="420" x2="60" y2="440" class="arrow"/>
    <line x1="60" y1="480" x2="60" y2="500" class="arrow"/>
    <line x1="60" y1="540" x2="60" y2="560" class="arrow"/>
    <line x1="60" y1="600" x2="60" y2="620" class="arrow"/>
    <line x1="60" y1="660" x2="60" y2="680" class="arrow"/>
  </g>

  <!-- エラーハンドリングフロー -->
  <g transform="translate(1050,60)">
    <text x="0" y="0" class="title" fill="#d84315">6. エラーハンドリング</text>
    
    <!-- エラー発生 -->
    <rect x="0" y="20" width="120" height="40" class="error" rx="8"/>
    <text x="60" y="45" class="text">エラー発生</text>
    
    <!-- エラータイプ判定 -->
    <polygon points="60,80 80,100 60,120 40,100" class="decision"/>
    <text x="60" y="115" class="small-text">カーソルエラー?</text>
    
    <!-- カーソルエラー -->
    <rect x="0" y="140" width="120" height="40" class="process" rx="8"/>
    <text x="60" y="165" class="text">カーソルクリーンアップ</text>
    
    <!-- 再試行判定 -->
    <polygon points="60,200 80,220 60,240 40,220" class="decision"/>
    <text x="60" y="235" class="small-text">再試行可能?</text>
    
    <!-- 再試行 -->
    <rect x="0" y="260" width="120" height="40" class="process" rx="8"/>
    <text x="60" y="285" class="text">処理再実行</text>
    
    <!-- エラー終了 -->
    <rect x="0" y="320" width="120" height="40" class="end" rx="20"/>
    <text x="60" y="345" class="text">エラー終了</text>
    
    <!-- 矢印 -->
    <line x1="60" y1="60" x2="60" y2="80" class="arrow"/>
    <line x1="60" y1="120" x2="60" y2="140" class="arrow"/>
    <line x1="60" y1="120" x2="60" y2="200" class="dashed-arrow"/>
    <line x1="60" y1="180" x2="60" y2="200" class="arrow"/>
    <line x1="60" y1="240" x2="60" y2="260" class="arrow"/>
    <line x1="60" y1="240" x2="60" y2="320" class="dashed-arrow"/>
  </g>

  <!-- 分岐処理フロー -->
  <g transform="translate(50,600)">
    <text x="0" y="0" class="title" fill="#7b1fa2">7. 分岐処理</text>
    
    <!-- 検索タイプ判定 -->
    <polygon points="60,40 80,60 60,80 40,60" class="decision"/>
    <text x="60" y="75" class="small-text">検索タイプ</text>
    
    <!-- 通常検索 -->
    <rect x="0" y="100" width="120" height="40" class="process" rx="8"/>
    <text x="60" y="125" class="text">通常検索</text>
    
    <!-- 追加検索 -->
    <rect x="0" y="160" width="120" height="40" class="process" rx="8"/>
    <text x="60" y="185" class="text">追加検索</text>
    
    <!-- 全データ抽出 -->
    <rect x="0" y="220" width="120" height="40" class="process" rx="8"/>
    <text x="60" y="245" class="text">全データ抽出</text>
    
    <!-- 矢印 -->
    <line x1="60" y1="80" x2="60" y2="100" class="arrow"/>
    <line x1="60" y1="80" x2="60" y2="160" class="dashed-arrow"/>
    <line x1="60" y1="80" x2="60" y2="220" class="dashed-arrow"/>
  </g>

  <!-- 権限チェックフロー -->
  <g transform="translate(250,600)">
    <text x="0" y="0" class="title" fill="#689f38">8. 権限チェック</text>
    
    <!-- 権限取得 -->
    <rect x="0" y="40" width="120" height="40" class="process" rx="8"/>
    <text x="60" y="65" class="text">権限取得</text>
    
    <!-- editApp判定 -->
    <polygon points="60,100 80,120 60,140 40,120" class="decision"/>
    <text x="60" y="135" class="small-text">editApp=true?</text>
    
    <!-- 権限あり -->
    <rect x="0" y="160" width="120" height="40" class="success" rx="8"/>
    <text x="60" y="185" class="text">処理実行</text>
    
    <!-- 権限なし -->
    <rect x="0" y="220" width="120" height="40" class="error" rx="8"/>
    <text x="60" y="245" class="text">権限エラー</text>
    
    <!-- 矢印 -->
    <line x1="60" y1="80" x2="60" y2="100" class="arrow"/>
    <line x1="60" y1="140" x2="60" y2="160" class="arrow"/>
    <line x1="60" y1="140" x2="60" y2="220" class="dashed-arrow"/>
  </g>

  <!-- 仮想スクロールフロー -->
  <g transform="translate(450,600)">
    <text x="0" y="0" class="title" fill="#00695c">9. 仮想スクロール</text>
    
    <!-- スクロール開始 -->
    <rect x="0" y="40" width="120" height="40" class="start" rx="20"/>
    <text x="60" y="65" class="text">スクロール開始</text>
    
    <!-- 表示範囲計算 -->
    <rect x="0" y="80" width="120" height="40" class="process" rx="8"/>
    <text x="60" y="105" class="text">表示範囲計算</text>
    
    <!-- 行生成 -->
    <rect x="0" y="120" width="120" height="40" class="process" rx="8"/>
    <text x="60" y="145" class="text">行生成</text>
    
    <!-- 変更状態チェック -->
    <rect x="0" y="160" width="120" height="40" class="process" rx="8"/>
    <text x="60" y="185" class="text">変更状態チェック</text>
    
    <!-- 表示更新 -->
    <rect x="0" y="200" width="120" height="40" class="success" rx="8"/>
    <text x="60" y="225" class="text">表示更新</text>
    
    <!-- 矢印 -->
    <line x1="60" y1="80" x2="60" y2="100" class="arrow"/>
    <line x1="60" y1="120" x2="60" y2="140" class="arrow"/>
    <line x1="60" y1="160" x2="60" y2="180" class="arrow"/>
    <line x1="60" y1="200" x2="60" y2="220" class="arrow"/>
  </g>

  <!-- データ統合フロー -->
  <g transform="translate(650,600)">
    <text x="0" y="0" class="title" fill="#c2185b">10. データ統合</text>
    
    <!-- 統合キー抽出 -->
    <rect x="0" y="40" width="120" height="40" class="process" rx="8"/>
    <text x="60" y="65" class="text">統合キー抽出</text>
    
    <!-- 主キー抽出 -->
    <rect x="0" y="80" width="120" height="40" class="process" rx="8"/>
    <text x="60" y="105" class="text">主キー抽出</text>
    
    <!-- 並列検索 -->
    <rect x="0" y="120" width="120" height="40" class="parallel" rx="8"/>
    <text x="60" y="145" class="text">並列検索</text>
    
    <!-- データマージ -->
    <rect x="0" y="160" width="120" height="40" class="process" rx="8"/>
    <text x="60" y="185" class="text">データマージ</text>
    
    <!-- ユーザー情報統合 -->
    <rect x="0" y="200" width="120" height="40" class="process" rx="8"/>
    <text x="60" y="225" class="text">ユーザー情報統合</text>
    
    <!-- 矢印 -->
    <line x1="60" y1="80" x2="60" y2="100" class="arrow"/>
    <line x1="60" y1="120" x2="60" y2="140" class="arrow"/>
    <line x1="60" y1="160" x2="60" y2="180" class="arrow"/>
    <line x1="60" y1="200" x2="60" y2="220" class="arrow"/>
  </g>

  <!-- 凡例 -->
  <g transform="translate(50,900)">
    <rect x="0" y="0" width="15" height="15" class="start"/>
    <text x="25" y="12" class="text" fill="#333">開始/終了</text>
    
    <rect x="0" y="25" width="15" height="15" class="process"/>
    <text x="25" y="37" class="text" fill="#333">処理</text>
    
    <polygon points="7,50 12,55 7,60 2,55" class="decision"/>
    <text x="25" y="62" class="text" fill="#333">判定</text>
    
    <rect x="0" y="75" width="15" height="15" class="parallel"/>
    <text x="25" y="87" class="text" fill="#333">並列処理</text>
    
    <rect x="0" y="100" width="15" height="15" class="success"/>
    <text x="25" y="112" class="text" fill="#333">成功</text>
    
    <rect x="0" y="125" width="15" height="15" class="error"/>
    <text x="25" y="137" class="text" fill="#333">エラー</text>
  </g>

  <g transform="translate(300,900)">
    <line x1="0" y1="7" x2="30" y2="7" class="arrow"/>
    <text x="35" y="12" class="text" fill="#333">通常フロー</text>
    
    <line x1="0" y1="32" x2="30" y2="32" class="dashed-arrow"/>
    <text x="35" y="37" class="text" fill="#333">エラーフロー</text>
  </g>

</svg> 